<?xml version="1.0" encoding="UTF-8"?>
<svg width="162px" height="352px" viewBox="0 0 162 352" version="1.1" xmlns="http://www.w3.org/2000/svg" xmlns:xlink="http://www.w3.org/1999/xlink">
    <!-- Generator: Sketch 52.3 (67297) - http://www.bohemiancoding.com/sketch -->
    <title>facebook</title>
    <desc>Created with Sketch.</desc>
    <g id="Page-1" stroke="none" stroke-width="1" fill="none" fill-rule="evenodd">
        <g id="facebook" fill="#000000">
            <path d="M36.9,115.4 L0.2,115.4 L0.2,175.3 L36.9,175.3 L36.9,351.1 L107.4,351.1 L107.4,174.5 L156.6,174.5 L161.8,115.4 L107.4,115.4 C107.4,115.4 107.4,93.3 107.4,81.7 C107.4,67.8 110.2,62.2 123.7,62.2 C134.6,62.2 161.9,62.2 161.9,62.2 L161.9,0.9 C161.9,0.9 121.7,0.9 113.1,0.9 C60.6,0.9 37,24 37,68.2 C36.9,106.8 36.9,115.4 36.9,115.4 Z" id="Path"></path>
        </g>
    </g>
</svg>