<?xml version="1.0" encoding="UTF-8"?>
<svg width="372px" height="364px" viewBox="0 0 372 364" version="1.1" xmlns="http://www.w3.org/2000/svg" xmlns:xlink="http://www.w3.org/1999/xlink">
    <!-- Generator: Sketch 52.3 (67297) - http://www.bohemiancoding.com/sketch -->
    <title>github</title>
    <desc>Created with Sketch.</desc>
    <g id="Page-1" stroke="none" stroke-width="1" fill="none" fill-rule="evenodd">
        <g id="github" fill="#000000">
            <path d="M186,0.7 C83.4,0.7 0.1,83.9 0.1,186.6 C0.1,268.7 53.4,338.4 127.2,363 C136.5,364.7 139.5,359 139.5,354.1 L139.5,319.4 C87.8,330.7 77,297.5 77,297.5 C68.6,276 56.4,270.3 56.4,270.3 C39.5,258.8 57.7,259 57.7,259 C76.4,260.3 86.2,278.2 86.2,278.2 C102.8,306.6 129.7,298.4 140.3,293.6 C142,281.6 146.8,273.4 152.1,268.7 C110.8,264 67.4,248.1 67.4,176.8 C67.4,156.5 74.7,139.9 86.6,126.9 C84.7,122.2 78.3,103.3 88.4,77.7 C88.4,77.7 104,72.7 139.5,96.8 C154.3,92.7 170.2,90.6 186,90.5 C201.8,90.6 217.7,92.6 232.6,96.8 C268.1,72.8 283.7,77.7 283.7,77.7 C293.8,103.3 287.5,122.2 285.5,126.9 C297.4,139.9 304.6,156.5 304.6,176.8 C304.6,248.2 261.1,263.9 219.7,268.5 C226.4,274.3 232.5,285.6 232.5,302.9 C232.5,327.8 232.5,347.8 232.5,353.9 C232.5,358.8 235.5,364.6 244.9,362.8 C318.7,338.2 371.9,268.5 371.9,186.4 C371.9,83.9 288.6,0.7 186,0.7 Z" id="Path"></path>
        </g>
    </g>
</svg>