<?xml version="1.0" encoding="UTF-8"?>
<svg width="280px" height="282px" viewBox="0 0 280 282" version="1.1" xmlns="http://www.w3.org/2000/svg" xmlns:xlink="http://www.w3.org/1999/xlink">
    <!-- Generator: Sketch 52.3 (67297) - http://www.bohemiancoding.com/sketch -->
    <title>linkedin</title>
    <desc>Created with Sketch.</desc>
    <g id="Page-1" stroke="none" stroke-width="1" fill="none" fill-rule="evenodd">
        <g id="linkedin" fill="#000000" fill-rule="nonzero">
            <path d="M68.4,35.4 C68.4,54.4 53.1,69.9 34.2,69.9 C15.3,69.9 -1.42108547e-14,54.5 -1.42108547e-14,35.4 C-1.42108547e-14,16.4 15.3,0.9 34.2,0.9 C53.1,0.9 68.4,16.4 68.4,35.4 Z M63.4,94.3 L5.6,94.3 L5.6,281.1 L63.4,281.1 L63.4,94.3 Z M155.8,94.3 L100.4,94.3 L100.4,281.1 L155.8,281.1 C155.8,281.1 155.8,211.8 155.8,183.1 C155.8,156.8 167.9,141.2 191,141.2 C212.3,141.2 222.5,156.2 222.5,183.1 C222.5,210 222.5,281.1 222.5,281.1 L280,281.1 C280,281.1 280,212.9 280,162.8 C280,112.8 251.7,88.6 212,88.6 C172.4,88.6 155.7,119.5 155.7,119.5 L155.7,94.3 L155.8,94.3 Z" id="Shape"></path>
        </g>
    </g>
</svg>