<?xml version="1.0" encoding="UTF-8"?>
<svg width="318px" height="258px" viewBox="0 0 318 258" version="1.1" xmlns="http://www.w3.org/2000/svg" xmlns:xlink="http://www.w3.org/1999/xlink">
    <!-- Generator: Sketch 52.3 (67297) - http://www.bohemiancoding.com/sketch -->
    <title>twitter</title>
    <desc>Created with Sketch.</desc>
    <g id="Page-1" stroke="none" stroke-width="1" fill="none" fill-rule="evenodd">
        <g id="twitter" fill="#000000">
            <path d="M317.6,30.6 C305.9,35.8 293.4,39.3 280.2,40.8 C293.6,32.7 304,20 308.8,4.8 C296.2,12.3 282.3,17.7 267.5,20.6 C255.6,8 238.7,0 220,0 C178,0 147.1,39.2 156.6,79.9 C102.5,77.2 54.5,51.3 22.4,11.9 C5.4,41.1 13.6,79.4 42.5,98.8 C31.8,98.5 21.8,95.5 13,90.7 C12.3,120.9 33.9,149.1 65.2,155.3 C56,157.8 46,158.4 35.8,156.4 C44.1,182.3 68.1,201.1 96.6,201.6 C69.2,223 34.8,232.6 0.2,228.6 C29,247.1 63.2,257.8 100,257.8 C220.8,257.8 289.1,155.7 285,64.2 C297.9,55.1 308.9,43.7 317.6,30.6 Z" id="Path"></path>
        </g>
    </g>
</svg>